# xmcd
#
# Track frame offsets:
#	150
#	17894
#	35311
#	53984
#	68420
#	85859
#	102226
#	117576
#	127820
#	145438
#	160926
#	177210
#	195633
#	211884
#	229976
#
# Disc length: 3289
#
# Revision: 1
# Processed by: cddbd v1.5.1PL0 Copyright (c) Steve Scherf et al.
# Submitted via: VisiTrax 2.9.5.180 - For more info visit www.synapsa.com
# Normalized: r0:DSETVAR1
#
DISCID=cc0cd70f
DTITLE=Various Artist - CDX 204 January 1999
DYEAR=1999
DGENRE=
TTITLE0=Danni Leigh - 29 nights
TTITLE1=Collin Raye - Anyone else
TTITLE2=Bruce Robison - Desperately
TTITLE3=Vince Gill - Don't come crying to me
TTITLE4=Terri Clark - Everytime I cry
TTITLE5=Deborah Allen - Is it love yet
TTITLE6=Jessica Andrews - I will be there for you
TTITLE7=Ricky Van Shelton - Just say goodbye
TTITLE8=Faith Hill - Love ain't like that
TTITLE9=Heather Myles - Love me a little bit longer
TTITLE10=George Strait - Meanwhile
TTITLE11=Mark Wills - Wish you were here
TTITLE12=Lila McCann - With you
TTITLE13=Tareva Henderson - (At the cornerof) Walk and don't walk
TTITLE14=Joe Singleton - Something cool
EXTD=
EXTT0=
EXTT1=
EXTT2=
EXTT3=
EXTT4=
EXTT5=
EXTT6=
EXTT7=
EXTT8=
EXTT9=
EXTT10=
EXTT11=
EXTT12=
EXTT13=
EXTT14=
PLAYORDER=
